<svg id="Calque_1" data-name="Calque 1" xmlns="http://www.w3.org/2000/svg" viewBox="0 0 69.67 47.34"><defs><style>.cls-1{fill:#191613;}.cls-2{fill:#afa8a1;}.cls-3{fill:#3a2f28;}.cls-4{fill:#211912;}</style></defs><title>homemade</title><path class="cls-1" d="M80.73,17c-2.19.87-10.57,7.4-14.61,10.59,0,0-.69-2.29-4.85-2.35,10-7.5,17.87-13.7,19.46-12.9C82.47,13.19,83.64,15.82,80.73,17Z" transform="translate(-12.83 -12.25)"/><path class="cls-2" d="M66.12,27.57l-2.19,1.74a20.69,20.69,0,0,0-5.7-1.83l3-2.26C65.43,25.28,66.12,27.57,66.12,27.57Z" transform="translate(-12.83 -12.25)"/><path class="cls-3" d="M47.39,53.34c10.43-3.84,17.32-10.7,15.73-16.1a5.93,5.93,0,0,0-1.54-2.54c-3.81-3.85-13.3-4.71-23.38-1.76S20.58,41.75,19.45,47a6,6,0,0,0,.08,3c1.66,5.65,12,7.65,23.39,4.71-14.54,3.85-27.7,1.35-29.81-5.81-2.17-7.41,8.34-17,23.47-21.45,7.68-2.26,15.07-2.74,20.78-1.71a20.69,20.69,0,0,1,5.7,1.83,8.93,8.93,0,0,1,4.86,5.27C69.95,39.76,60.92,48.6,47.39,53.34Z" transform="translate(-12.83 -12.25)"/><path class="cls-4" d="M47.39,53.34l-.92.32-1,.32-1,.31-1.53.42c-11.43,2.94-21.73.94-23.39-4.71a6,6,0,0,1-.08-3c1.14-5.29,8.65-11.14,18.74-14.1s19.57-2.09,23.38,1.76a5.93,5.93,0,0,1,1.54,2.54C64.7,42.64,57.81,49.5,47.39,53.34Z" transform="translate(-12.83 -12.25)"/><path class="cls-2" d="M47.22,57.34c-15.16,5.25-32.06.87-34.11-8.44,2.11,7.16,15.27,9.66,29.81,5.81l1.53-.42,1-.31,1-.32.92-.32c13.53-4.74,22.56-13.58,20.53-20.5C70.82,40.87,62.37,52.09,47.22,57.34Z" transform="translate(-12.83 -12.25)"/></svg>