<svg id="Calque_1" data-name="Calque 1" xmlns="http://www.w3.org/2000/svg" viewBox="0 0 75.25 56.07"><defs><style>.cls-1{fill:#fff;}.cls-2{fill:#ededed;}.cls-3{fill:#f5f7f5;}.cls-4{fill:#bcbcbc;}.cls-5{fill:#5fba24;}</style></defs><title>too good to go 1</title><path class="cls-1" d="M115.09,138.12c0,2.28-14.09,4.13-31.47,4.13s-31.46-1.85-31.46-4.13S66.25,134,83.62,134,115.09,135.85,115.09,138.12Z" transform="translate(-46 -90.18)"/><path d="M83.62,135c17.27,0,28.46,1.78,30.32,3.12-1.85,1.34-13,3.13-30.32,3.13s-28.46-1.79-30.31-3.13c1.85-1.34,13-3.12,30.31-3.12m0-1c-17.37,0-31.46,1.85-31.46,4.12s14.09,4.13,31.46,4.13,31.47-1.85,31.47-4.13S101,134,83.62,134Z" transform="translate(-46 -90.18)"/><path class="cls-2" d="M121.2,136.75c-1-3.76-17.44-6.75-37.58-6.75S47.05,133,46,136.75a1.46,1.46,0,0,0,0,.37,1.52,1.52,0,0,0,0,.37,1.66,1.66,0,0,0,.06.18c1.52,3.6,17.74,5.58,37.51,5.58s36-2,37.52-5.58h0a.61.61,0,0,0,.06-.17,1.52,1.52,0,0,0,0-.37A1.46,1.46,0,0,0,121.2,136.75Zm-37.58,5.5c-17.37,0-31.46-1.85-31.46-4.13S66.25,134,83.62,134s31.47,1.85,31.47,4.12S101,142.25,83.62,142.25Z" transform="translate(-46 -90.18)"/><path class="cls-3" d="M52.16,138.12c0-2.27,14.09-4.12,31.46-4.12s31.47,1.85,31.47,4.12-14.09,4.13-31.47,4.13S52.16,140.4,52.16,138.12Z" transform="translate(-46 -90.18)"/><path class="cls-4" d="M121.14,137.67c-1.46,3.86-17.7,8.58-37.52,8.58s-36.05-4.72-37.51-8.58c1.52,3.6,17.74,5.58,37.51,5.58S119.62,141.27,121.14,137.67Z" transform="translate(-46 -90.18)"/><path class="cls-5" d="M75.76,92.13h0l-.2.35v0l-3.48,6,7.38,4.26,3.38-5.86.42-.73,1-1.77,2.46-4.26H79.35A4.26,4.26,0,0,0,75.76,92.13Z" transform="translate(-46 -90.18)"/><path class="cls-5" d="M92.87,92.3a4.26,4.26,0,0,0-3.69-2.13H79.35a4.27,4.27,0,0,1,3.58,1.94l.23.4,5.94,10.28,7.37-4.26Z" transform="translate(-46 -90.18)"/><polygon class="cls-5" points="39.55 12.62 48.01 12.62 52.24 5.3 39.55 12.62"/><path class="cls-5" d="M102.63,109.21h0l-.2-.35v0l-3.48-6-7.38,4.26,3.39,5.86.42.73,1,1.77,2.46,4.26,3.69-6.39A4.26,4.26,0,0,0,102.63,109.21Z" transform="translate(-46 -90.18)"/><path class="cls-5" d="M93.92,123.93a4.26,4.26,0,0,0,3.69-2.13l3.69-6.39,1.23-2.13a4.26,4.26,0,0,1-3.47,2.13H86.72v8.52h7.2Z" transform="translate(-46 -90.18)"/><polygon class="cls-5" points="42.49 22.18 38.26 29.5 42.49 36.83 42.49 22.18"/><path class="cls-5" d="M81.8,115.42H67.23l3.69,6.39a4.26,4.26,0,0,0,3.48,2.13H81.8v-8.52Z" transform="translate(-46 -90.18)"/><path class="cls-5" d="M66,109a4.26,4.26,0,0,0,0,4.26l3.69,6.39,1.23,2.13a4.27,4.27,0,0,1-.11-4.07l.23-.4L77,107.05l-7.38-4.26Z" transform="translate(-46 -90.18)"/><polygon class="cls-5" points="32.74 19.94 28.52 12.62 20.06 12.62 32.74 19.94"/></svg>
