<svg id="Calque_1" data-name="Calque 1" xmlns="http://www.w3.org/2000/svg" viewBox="0 0 61.34 53.07"><defs><style>.cls-1{fill:#c65b12;}.cls-2{fill:#ce783e;}.cls-3{fill:#af3d10;}.cls-4{fill:#5fba24;}.cls-5{fill:#3b8909;}</style></defs><title>vegan</title><path class="cls-1" d="M113.56,30.9l-1,1.17c-1.8,2.24-3.71,4.72-5.58,7.28-.24.32-.49.65-.72,1-1.89,2.6-3.74,5.25-5.41,7.77-.13.21-.27.41-.39.61C96.12,55.4,93.11,61,94.09,62c.73.73,4-.74,8.36-3.33l.25-.15c2.81-1.68,6.07-3.81,9.38-6.12l.77-.55c2.54-1.78,5.09-3.66,7.49-5.49l1.07-.84c2.65-2,5.06-4,7-5.79.39-.34.77-.7,1.12-1a16.2,16.2,0,0,0,3.64-4.19c1.07-2.65-.11-5.82-3-8.67h0c-2.86-2.86-6-4-8.68-3C120.1,23.48,117.08,26.62,113.56,30.9Z" transform="translate(-93.9 -9.1)"/><path class="cls-2" d="M121.56,32.81s4,5.31,6.88,6.92c.39-.34.77-.7,1.12-1A54.69,54.69,0,0,1,121.56,32.81Z" transform="translate(-93.9 -9.1)"/><path class="cls-2" d="M115.22,40.73a44.85,44.85,0,0,0,5.11,5.63l1.07-.84A69.22,69.22,0,0,1,115.22,40.73Z" transform="translate(-93.9 -9.1)"/><path class="cls-2" d="M108.89,48.63a48.51,48.51,0,0,0,3.18,3.76l.77-.55C110.7,50.22,108.89,48.63,108.89,48.63Z" transform="translate(-93.9 -9.1)"/><path class="cls-2" d="M101.56,57.54s.33.45.88,1.12l.25-.15Z" transform="translate(-93.9 -9.1)"/><path class="cls-3" d="M113.56,30.9l-1,1.17c1.94,2.81,6.55,6.29,6.55,6.29A58.37,58.37,0,0,1,113.56,30.9Z" transform="translate(-93.9 -9.1)"/><path class="cls-3" d="M107,39.35c-.24.32-.49.65-.72,1a47.06,47.06,0,0,0,4.94,4.38S108.92,42.05,107,39.35Z" transform="translate(-93.9 -9.1)"/><path class="cls-3" d="M100.9,48.09c-.13.21-.27.41-.39.61C102,50,103.34,51,103.34,51S102.22,49.77,100.9,48.09Z" transform="translate(-93.9 -9.1)"/><path class="cls-4" d="M129.31,26.65c3.05-.19,10,4.05,1.46,14.22-4.21,5,3.49,8,6.72,3.56,3.93-5.44,4.4-10.86,2.46-14.59l0,0C138,26.09,133.85,24.27,129.31,26.65Z" transform="translate(-93.9 -9.1)"/><path class="cls-4" d="M129.31,26.65c4.5-4.58,10.68-4.28,15.4-2.42l0,0a16.75,16.75,0,0,1,4.88,3c4.1,3.73,8.88-.81,2.53-6.15S133.91,19.56,129.31,26.65Z" transform="translate(-93.9 -9.1)"/><path class="cls-5" d="M123.45,18.14c2.44-.33,4.41.2,5.62,1.36l0,0c1.42,1.4,1.77,3.68.53,6.47a.5.5,0,0,1,0,.13c-.08.18-.16.36-.25.53,3.87-4.7,7.42-13.78-1.8-16.8C115.43,5.91,117.9,18.87,123.45,18.14Z" transform="translate(-93.9 -9.1)"/><path class="cls-5" d="M118.51,26c-4.94,4.94.14,7.49,3.57,4.22s7.62-6.21,7.24-3.54c.09-.17.17-.35.25-.53a.5.5,0,0,0,0-.13c.32-1.21-.71-2.22-2.37-2.64h0A9.41,9.41,0,0,0,118.51,26Z" transform="translate(-93.9 -9.1)"/><path class="cls-5" d="M129.31,26.65c4.54-2.38,8.69-.56,10.62,3.17l0,0c3.94,5.29,11.49-2.29,4.79-5.59l0,0C140,22.36,133.81,22.07,129.31,26.65Z" transform="translate(-93.9 -9.1)"/><path class="cls-4" d="M127.19,23.34h0c1.66.43,2.68,1.43,2.37,2.64,1.24-2.79.89-5.07-.53-6.47l0,0C126.55,17.3,123.47,22.09,127.19,23.34Z" transform="translate(-93.9 -9.1)"/></svg>